<?xml version="1.0" encoding="UTF-8" standalone="no"?>
  <svg xmlns:dc="http://purl.org/dc/elements/1.1/" xmlns:cc="http://creativecommons.org/ns#" xmlns:rdf="http://www.w3.org/1999/02/22-rdf-syntax-ns#" xmlns:svg="http://www.w3.org/2000/svg" xmlns="http://www.w3.org/2000/svg" viewBox="0 0 175 200" height="200" width="175" xml:space="preserve" id="svg2" version="1.1">
    <g transform="matrix(1.3333333,0,0,-1.3333333,0,200)" id="g14w">
      <g transform="scale(0.1)" id="g14">
        <path id="path14" style="fill:#75b82c;fill-opacity:1;fill-rule:nonzero;stroke:none" d="M 5.53516,888.508 197.926,522.023 c 13.136,-24.968 45.515,-45.234 72.262,-45.168 v 0 l 392.476,0.829 c 26.793,0.054 37.848,20.371 24.723,45.382 v 0 l -192.41,366.465 c -13.125,25.016 -45.497,45.227 -72.27,45.168 v 0 L 30.2383,933.883 c -0.6055,0 -1.1914,-0.02 -1.7969,-0.02 v 0 C 2.98047,932.902 -7.3125,912.961 5.53516,888.508" />
        <path id="path16" style="fill:#75b82c;fill-opacity:1;fill-rule:nonzero;stroke:none" d="M 751.031,461.488 867.539,244.09 c 7.926,-14.828 27.309,-26.731 43.27,-26.551 v 0 l 233.841,2.473 c 15.97,0.16 22.41,12.32 14.49,27.16 v 0 l -116.47,217.379 c -7.94,14.84 -27.35,26.715 -43.272,26.547 v 0 l -233.847,-2.457 c -0.274,0 -0.531,0 -0.805,0 v 0 C 749.375,488.07 743.23,476.098 751.031,461.488" />
        <path id="path18" style="fill:#3d90d5;fill-opacity:1;fill-rule:nonzero;stroke:none" d="M 752.395,1286.95 518.582,986.836 c -15.98,-20.504 -18.098,-57.246 -4.754,-82.172 v 0 L 709.305,539.84 c 13.324,-24.883 37.093,-28.473 53.047,-8.02 v 0 l 233.839,300.172 c 15.949,20.465 18.089,57.25 4.719,82.153 v 0 L 805.461,1278.98 c -7.75,14.4 -18.953,21.66 -30.125,21.27 v 0 c -8.109,-0.33 -16.219,-4.68 -22.941,-13.3" />
        <path id="path20" style="fill:#3d90d5;fill-opacity:1;fill-rule:nonzero;stroke:none" d="M 697.633,457.848 558.277,279.02 c -9.539,-12.211 -10.769,-34.122 -2.836,-48.938 v 0 L 671.922,12.6914 c 7.969,-14.83984 22.113,-16.97265 31.633,-4.76171 v 0 L 842.871,186.738 c 9.5,12.231 10.77,34.16 2.844,48.953 v 0 L 729.227,453.09 c -4.586,8.586 -11.282,12.918 -17.954,12.699 v 0 c -4.812,-0.168 -9.668,-2.777 -13.64,-7.941" />
      </g>
    </g>
  </svg>